<?xml version="1.0" encoding="UTF-8"?>
<svg width="26px" height="26px" viewBox="0 0 26 26" version="1.1" xmlns="http://www.w3.org/2000/svg" xmlns:xlink="http://www.w3.org/1999/xlink">
    <title>icon/头像</title>
    <g id="控件" stroke="none" stroke-width="1" fill="none" fill-rule="evenodd" fill-opacity="0.65">
        <g id="头部" transform="translate(-1811.000000, -20.000000)" fill="#FFFFFF">
            <path d="M1824,20 C1816.8144,20 1811,25.8275862 1811,33 C1811,40.1724138 1816.82759,46 1824,46 C1831.17241,46 1837,40.1724138 1837,33 C1837,25.8275862 1831.17241,20 1824,20 Z M1824,21.1866126 C1830.51318,21.1866126 1835.81339,26.4868154 1835.81339,33 C1835.81339,35.9401623 1834.73225,38.643002 1832.93915,40.7129817 C1832.49087,40.3306288 1831.6998,40.040568 1830.39452,39.7373225 C1827.94219,39.1572008 1826.71602,37.7860041 1826.50507,37.4959432 C1826.29412,37.2058824 1826.29412,36.8498986 1826.29412,36.4148073 C1826.29412,36.2697769 1826.36004,36.0588235 1826.43915,35.9137931 L1826.50507,35.7687627 C1826.57099,35.6237323 1826.86105,34.8985801 1827.08519,34.4634888 C1827.08519,34.3975659 1827.23022,34.173428 1827.37525,34.0283976 C1827.58621,33.8833671 1827.81034,33.6724138 1828.16633,33.2373225 C1828.74645,32.36714 1828.45639,31.5760649 1827.95538,31.2200811 L1827.95538,31.0750507 C1828.24544,30.2839757 1828.39047,29.3478702 1828.31136,28.1876268 C1828.24544,26.9614604 1827.08519,25.0892495 1824.13185,25.0892495 C1821.1785,25.0892495 1820.00507,26.8955375 1819.92596,28.1876268 C1819.86004,29.3478702 1819.99189,30.2839757 1820.28195,30.9959432 L1820.28195,31.1541582 C1819.78093,31.5892495 1819.5568,32.3803245 1820.07099,33.2505071 C1820.36105,33.6855984 1820.65112,33.8965517 1820.86207,34.0415822 C1821.0071,34.1866126 1821.15213,34.3975659 1821.15213,34.4766734 C1821.36308,34.9117647 1821.65314,35.5578093 1821.73225,35.7819473 L1821.79817,35.9269777 C1821.8641,36.137931 1821.9432,36.2829615 1821.9432,36.4279919 C1821.9432,36.7839757 1821.9432,37.2190669 1821.73225,37.5091278 C1821.5213,37.7991886 1820.29513,39.1703854 1817.8428,39.7505071 C1816.51116,40.0537525 1815.57505,40.3042596 1815.04767,40.6997972 C1813.26775,38.6298174 1812.18661,35.9401623 1812.18661,33 C1812.18661,26.4868154 1817.48682,21.1866126 1824,21.1866126 Z" id="icon/头像"></path>
        </g>
    </g>
</svg>