<?xml version="1.0" encoding="UTF-8"?>
<svg width="24px" height="24px" viewBox="0 0 24 24" version="1.1" xmlns="http://www.w3.org/2000/svg" xmlns:xlink="http://www.w3.org/1999/xlink">
    <title>icon/通知</title>
    <g id="控件" stroke="none" stroke-width="1" fill="none" fill-rule="evenodd" opacity="0.85">
        <g id="头部" transform="translate(-1755.000000, -21.000000)" fill-rule="nonzero">
            <g id="icon/通知" transform="translate(1755.000000, 21.000000)">
                <rect id="矩形" fill="#000000" opacity="0" x="0" y="0" width="24" height="24"></rect>
                <path d="M19.8515625,17.1820313 L18.0351563,13.5539063 C18.0164063,13.5140625 18.0046875,13.471875 18.0046875,13.4273438 L18,9.41015625 C17.9976563,7.14375 16.4625,5.2359375 14.3789063,4.66640625 L14.3789063,4.6640625 C14.3789063,3.3609375 13.321875,2.30390625 12.01875,2.30390625 C10.7179688,2.30390625 9.66328125,3.35625 9.65859375,4.65703125 C7.5515625,5.2171875 5.99765625,7.1390625 6,9.421875 L6.0046875,13.4390625 C6.0046875,13.4835938 5.9953125,13.5257813 5.97421875,13.565625 L4.16015625,17.1890625 C3.63046875,18.2484375 4.4015625,19.4976563 5.5875,19.4953158 L18.4289063,19.4859375 C19.6125,19.4882813 20.3835938,18.2414063 19.8515625,17.1820313 Z M9.87890625,20.1749851 C9.6421875,20.1749851 9.51328125,20.4492188 9.6609375,20.634375 C10.209375,21.31875 11.053125,21.7570313 11.9976563,21.7570313 C12.9445313,21.7570313 13.7882813,21.31875 14.3390625,20.6320313 C14.4867188,20.446875 14.3578125,20.1726562 14.1210938,20.1749851 L9.87890625,20.1749851 Z" id="形状" fill="#6680FF"></path>
            </g>
        </g>
    </g>
</svg>