<?xml version="1.0" encoding="UTF-8"?>
<svg width="12px" height="12px" viewBox="0 0 12 12" version="1.1" xmlns="http://www.w3.org/2000/svg" xmlns:xlink="http://www.w3.org/1999/xlink">
    <title>icon/退出登录</title>
    <g id="输出稿" stroke="none" stroke-width="1" fill="none" fill-rule="evenodd">
        <g id="1.2.2-超级管理员" transform="translate(-1752.000000, -159.000000)" fill-rule="nonzero">
            <g id="退出登录" transform="translate(1736.000000, 145.000000)">
                <g id="icon/退出登录" transform="translate(16.000000, 14.000000)">
                    <rect id="矩形" fill="#000000" opacity="0" x="0" y="0" width="12" height="12"></rect>
                    <path d="M6.00234375,11.1691406 C4.83515625,11.1691406 3.66210937,10.7789062 2.6953125,9.97734375 C0.4921875,8.1515625 0.186328125,4.875 2.01210937,2.671875 C3.83789062,0.46875 7.115625,0.162890625 9.31757812,1.98867187 C9.94804687,2.51132812 10.4332031,3.1546875 10.7589844,3.9 C10.846875,4.1015625 10.7554687,4.33710937 10.5527344,4.42617187 C10.3511719,4.5140625 10.115625,4.42265625 10.0265625,4.21992187 C9.75117187,3.58945312 9.34101562,3.04570312 8.80664062,2.60390625 C6.94453125,1.05820312 4.171875,1.31835937 2.62617187,3.18164062 C1.08164062,5.04492187 1.340625,7.81757812 3.20507812,9.36328125 C5.06835937,10.9078125 7.84101562,10.6488281 9.38671875,8.78554687 C9.61757812,8.50664062 9.81328125,8.20195312 9.96796875,7.87851562 C10.0628906,7.67929687 10.3019531,7.59609375 10.5,7.69101562 C10.6992187,7.7859375 10.7824219,8.025 10.6875,8.22304687 C10.5046875,8.60507812 10.2738281,8.96601562 10.0007812,9.29414062 C8.9765625,10.5304687 7.49414062,11.1691406 6.00234375,11.1691406 Z" id="路径" fill="#4D4D4D"></path>
                    <path d="M10.6746094,6.38203125 L5.165625,6.38203125 C4.9453125,6.38203125 4.76601563,6.20273438 4.76601563,5.98242188 C4.76601563,5.76210937 4.9453125,5.5828125 5.165625,5.5828125 L10.6746094,5.5828125 C10.8949219,5.5828125 11.0742188,5.76210938 11.0742188,5.98242188 C11.0742188,6.20390625 10.8949219,6.38203125 10.6746094,6.38203125 L10.6746094,6.38203125 Z" id="路径" fill="#4D4D4D"></path>
                </g>
            </g>
        </g>
    </g>
</svg>