<?xml version="1.0" encoding="UTF-8"?>
<svg width="12px" height="12px" viewBox="0 0 12 12" version="1.1" xmlns="http://www.w3.org/2000/svg" xmlns:xlink="http://www.w3.org/1999/xlink">
    <title>icon/修改密码</title>
    <g id="输出稿" stroke="none" stroke-width="1" fill="none" fill-rule="evenodd">
        <g id="1.2.2-超级管理员" transform="translate(-1752.000000, -119.000000)" fill="#000000" fill-rule="nonzero">
            <g id="修改密码" transform="translate(1736.000000, 105.000000)">
                <g id="icon/修改密码" transform="translate(16.000000, 14.000000)">
                    <rect id="矩形" opacity="0" x="0" y="0" width="12" height="12"></rect>
                    <path d="M9.7734375,7.31367187 C9.5953125,7.31367187 9.45,7.45898437 9.45,7.63710937 L9.45,10.6101562 L1.70390625,10.6101562 L1.70390625,5.98945312 L6.52382812,5.98945312 C6.70195312,5.98945312 6.84726562,5.84414062 6.84726562,5.66601562 C6.84726562,5.48789062 6.70195312,5.34257812 6.52382812,5.34257812 L2.93203125,5.34257812 L2.93203125,3.77695312 C2.93203125,2.465625 3.9984375,1.39921875 5.3109375,1.39921875 L5.79140625,1.39921875 C7.10273437,1.39921875 8.16914062,2.465625 8.16914062,3.77695312 L8.16914062,4.02773437 L8.1703125,4.02773437 C8.18085937,4.19648437 8.32148437,4.33007812 8.49257812,4.33007812 C8.67070312,4.33007812 8.81601562,4.1859375 8.81601562,4.00664062 C8.81601562,3.9984375 8.81601562,3.99023437 8.81484375,3.98203125 L8.81484375,3.77578125 C8.81484375,2.11171875 7.45429687,0.751171875 5.79023437,0.751171875 L5.30976562,0.751171875 C3.64570312,0.751171875 2.28515625,2.11171875 2.28515625,3.77578125 L2.28515625,5.34140625 L1.38046875,5.34140625 C1.20234375,5.34140625 1.05703125,5.48671875 1.05703125,5.66484375 L1.05703125,10.9511719 C1.05703125,11.1292969 1.20234375,11.2746094 1.38046875,11.2746094 C1.41914062,11.2746094 1.45664062,11.2675781 1.49179687,11.2546875 L9.66210937,11.2546875 C9.69726562,11.2675781 9.73359375,11.2746094 9.7734375,11.2746094 C9.9515625,11.2746094 10.096875,11.1292969 10.096875,10.9511719 L10.096875,7.6359375 C10.0957031,7.45898437 9.95039062,7.31367187 9.7734375,7.31367187 Z M10.6359375,4.1671875 C10.5105469,4.04179687 10.3042969,4.04179687 10.1789062,4.1671875 L5.67070312,8.67421875 C5.5453125,8.79960937 5.5453125,9.00585937 5.67070312,9.13125 C5.79609375,9.25664062 6.00234375,9.25664062 6.12773437,9.13125 L10.6347656,4.62421875 C10.7613281,4.49765625 10.7613281,4.29257812 10.6359375,4.1671875 Z" id="形状" fill-opacity="0.65"></path>
                </g>
            </g>
        </g>
    </g>
</svg>